<?xml version="1.0" encoding="utf-8"?>
<!-- Generator: Adobe Illustrator 16.0.0, SVG Export Plug-In . SVG Version: 6.00 Build 0)  -->
<!DOCTYPE svg PUBLIC "-//W3C//DTD SVG 1.1//EN" "http://www.w3.org/Graphics/SVG/1.1/DTD/svg11.dtd">
<svg version="1.1" id="Layer_1" xmlns="http://www.w3.org/2000/svg" xmlns:xlink="http://www.w3.org/1999/xlink" x="0px" y="0px"
	width="57px" height="57px" viewBox="0 0 57 57" enable-background="new 0 0 57 57" xml:space="preserve">
<path d="M14.701,8.182c-0.882,0.882-0.882,2.325,0,3.207L30.32,27.008c0.882,0.882,0.882,2.326,0,3.207L14.701,45.834
	c-0.882,0.883-0.882,2.325,0,3.207l2.896,2.895c0.882,0.883,2.325,0.883,3.207,0l15.618-15.618c0.883-0.882,2.325-2.325,3.207-3.207
	l2.896-2.896c0.882-0.881,0.882-2.325,0-3.207l-2.896-2.895c-0.882-0.882-2.324-2.325-3.207-3.207L20.804,5.287
	c-0.882-0.882-2.325-0.882-3.207,0L14.701,8.182z"/>
</svg>
